One night at a secluded farmhouse deep in the Northern California woods, a small group of hardened young bikers and their girlfriends are tormented when one of the girls becomes savagely possessed and a gang of "Rockabillies" seemingly from the 1950's descends upon them to collect what is growing inside her.




Format/Info                    : Audio Video Interleave
File size                      : 1.37 GiB
Duration                       : 1h 28mn
Overall bit rate               : 2 204 Kbps
Writing application            : VirtualDubMod 1.5.10.2 (build 2540/release)
Writing library                : VirtualDubMod build 2540/release

Video
ID                             : 0
Format                         : MPEG-4 Visual
Format settings, BVOP          : 1
Format settings, QPel          : No
Format settings, GMC           : No warppoints
Format settings, Matrix        : Default (H.263)
Muxing mode                    : Packed bitstream
Codec ID                       : DX50
Codec ID/Hint                  : DivX 5
Duration                       : 1h 28mn
Bit rate                       : 1 747 Kbps
Width                          : 640 pixels
Height                         : 368 pixels
Display aspect ratio           : 1.739
Frame rate                     : 23.976 fps
Color space                    : YUV
Chroma subsampling             : 4:2:0
Bit depth                      : 8 bits
Scan type                      : Progressive
Compression mode               : Lossy
Bits/(Pixel*Frame)             : 0.309
Stream size                    : 1.08 GiB (79%)
Writing library                : DivX 6.8.5 (UTC 2009-08-20)

Audio
ID                             : 1
Format                         : AC-3
Format/Info                    : Audio Coding 3
Mode extension                 : CM (complete main)
Format settings, Endianness    : Big
Codec ID                       : 2000
Duration                       : 1h 28mn
Bit rate mode                  : Constant
Bit rate                       : 448 Kbps
Channel(s)                     : 6 channels
Channel positions              : Front: L C R, Side: L R, LFE
Sampling rate                  : 48.0 KHz
Bit depth                      : 16 bits
Compression mode               : Lossy
Stream size                    : 284 MiB (20%)
Alignment                      : Split accross interleaves
Interleave, duration           : 42 ms (1.00 video frame)
Interleave, preload duration   : 500 ms
